<svg width="30" height="26" viewBox="0 0 30 26" fill="none" xmlns="http://www.w3.org/2000/svg">
<path d="M12.2244 1.9801C10.6044 3.6001 9.82438 3.9601 8.32438 3.7201C6.52438 3.4801 4.12438 4.8601 4.12438 6.1201C4.12438 6.4201 3.16438 7.5601 2.02438 8.6401C-1.03562 11.5801 -0.555623 15.9001 2.98438 17.7601C4.90438 18.7201 11.3244 18.9001 11.3244 18.0001C11.3244 17.6401 9.70438 17.4001 7.72438 17.4001C4.66438 17.4001 3.82438 17.1601 2.62438 15.9001C0.644377 13.9801 0.704377 11.7001 2.80438 9.6001C3.76438 8.7001 4.96438 7.2001 5.56438 6.3001C6.52438 4.8601 6.88438 4.6801 8.86438 5.0401C10.8444 5.3401 11.2044 5.1601 11.8644 3.9601C13.2444 1.4401 17.3844 0.420095 20.5044 1.8601C22.2444 2.6401 23.9244 5.3401 23.9244 7.4401C23.9244 8.4601 24.2244 9.0001 24.8244 9.0001C26.2644 9.0001 28.7244 11.7601 28.7244 13.3801C28.7244 15.9601 26.3844 17.4001 22.2444 17.4001C20.1444 17.4001 18.5244 17.6401 18.5244 18.0001C18.5244 18.3601 20.2644 18.6001 22.4844 18.6001C26.0244 18.6001 26.5644 18.4201 28.1844 16.8601C30.9444 14.1001 30.4044 10.5001 26.9844 8.7001C25.7844 8.1001 25.1244 7.2001 24.8844 5.7601C24.6444 4.4401 23.6844 3.0001 22.3644 1.8601C20.6244 0.300097 19.7844 9.53674e-05 17.2644 9.53674e-05C14.6244 9.53674e-05 13.9644 0.240095 12.2244 1.9801Z" fill="url(#paint0_linear_5_4)"/>
<path d="M14.3244 17.52C14.3244 22.98 14.3244 22.98 13.1244 21.9C11.0844 20.04 10.9644 21.54 13.0044 23.58L14.9244 25.5L16.8444 23.58C18.8844 21.54 18.7644 20.04 16.7244 21.9C15.5244 22.98 15.5244 22.98 15.5244 17.52C15.5244 14.22 15.2844 12 14.9244 12C14.5644 12 14.3244 14.22 14.3244 17.52Z" fill="url(#paint1_linear_5_4)"/>
<defs>
<linearGradient id="paint0_linear_5_4" x1="14.9738" y1="18.6001" x2="14.9738" y2="9.53674e-05" gradientUnits="userSpaceOnUse">
<stop stop-color="#7242BD"/>
<stop offset="1" stop-color="#73AAE5"/>
</linearGradient>
<linearGradient id="paint1_linear_5_4" x1="14.9244" y1="25.5" x2="14.9244" y2="12" gradientUnits="userSpaceOnUse">
<stop stop-color="#7242BD"/>
<stop offset="1" stop-color="#73AAE5"/>
</linearGradient>
</defs>
</svg>
