<svg width="137" height="129" viewBox="0 0 137 129" fill="none" xmlns="http://www.w3.org/2000/svg">
<path d="M15.2667 2.26668C14.0667 3.46668 13.6667 19.0667 13.6667 64.1334V124.533L7.39999 124.933C3.93332 125.2 0.999989 126.133 0.599989 126.933C0.199989 128.267 14.3333 128.667 68.3333 128.667C122.333 128.667 136.467 128.267 136.067 126.933C135.667 126.133 132.733 125.2 129.267 124.933L123 124.533V63.4667C123 8.93335 122.733 2.13335 120.867 1.46668C119.667 1.06668 95.8 0.66668 67.8 0.66668C29.9333 0.66668 16.4667 1.06668 15.2667 2.26668ZM117.667 64.9334V124.667H103.667H89.8L89.4 106.267L89 88H68.3333H47.6667L47.2667 106.267L46.8667 124.667H33H19V64.9334V5.33335H68.3333H117.667V64.9334ZM65.6667 108.133V124.8L58.7333 124.4L51.6667 124L51.5333 108.667C51.5333 100.267 51.6667 92.9334 51.9333 92.2667C52.2 91.7334 55.4 91.3334 59.1333 91.3334H65.6667V108.133ZM85.4 108.267L85.8 124.667H78.3333H71V107.867V91.2L78.0667 91.6L85 92L85.4 108.267Z" fill="#7B52D0"/>
<path d="M31 26.6667C31 28.2667 32.8667 28.6667 39.6667 28.6667C46.4667 28.6667 48.3333 28.2667 48.3333 26.6667C48.3333 25.0667 46.4667 24.6667 39.6667 24.6667C32.8667 24.6667 31 25.0667 31 26.6667Z" fill="#7B52D0"/>
<path d="M59.6667 25.9999C59.2667 26.6666 59.6667 27.7333 60.7333 28.1333C63.8 29.3333 77 28.1333 77 26.6666C77 24.7999 60.7333 24.1333 59.6667 25.9999Z" fill="#7B52D0"/>
<path d="M88.3334 26.6666C88.3334 28.4 89.8 28.6666 97 28.4C108.6 27.8666 108.733 25.4666 97.4 24.9333C89.8 24.6666 88.3334 24.9333 88.3334 26.6666Z" fill="#7B52D0"/>
<path d="M31.4 44.9334C31.6667 46.1334 34.6 46.6667 39.6667 46.6667C44.7334 46.6667 47.6667 46.1334 48.0667 44.9334C48.4667 43.7334 46.2 43.3334 39.6667 43.3334C33.1334 43.3334 30.8667 43.7334 31.4 44.9334Z" fill="#7B52D0"/>
<path d="M59.4001 44.9334C59.6668 46.1334 62.7334 46.6667 68.3334 46.6667C73.9334 46.6667 77.0001 46.1334 77.4001 44.9334C77.8001 43.7334 75.4001 43.3334 68.3334 43.3334C61.2668 43.3334 58.8668 43.7334 59.4001 44.9334Z" fill="#7B52D0"/>
<path d="M88.6001 44.9333C89.2667 46.8 99.0001 48 103.933 46.6667C109.667 45.3333 105.667 43.3333 96.8667 43.3333C90.4667 43.3333 88.2001 43.7333 88.6001 44.9333Z" fill="#7B52D0"/>
<path d="M31 62.6667C31 64.2667 32.7333 64.6667 39.8 64.6667C46.2 64.6667 48.4667 64.2667 48.0667 62.9334C47.6667 62 44.3333 61.2 39.2667 60.9334C32.4667 60.6667 31 60.9334 31 62.6667Z" fill="#7B52D0"/>
<path d="M59.9334 61.4667C57.5334 63.8667 59.6667 64.6667 68.4667 64.6667C75.4001 64.6667 77.8001 64.2667 77.4001 62.9334C76.7334 61.2 61.5334 59.8667 59.9334 61.4667Z" fill="#7B52D0"/>
<path d="M89.2667 61.4666C86.8667 64 89 64.8 97 64.4C101.8 64.1333 105.8 63.3333 106.067 62.6666C106.333 61.2 90.7334 60 89.2667 61.4666Z" fill="#7B52D0"/>
</svg>
