<svg width="144" height="144" viewBox="0 0 144 144" fill="none" xmlns="http://www.w3.org/2000/svg">
<path d="M64 1.19999C55.8667 3.19999 48.2667 9.99999 46.5334 16.6667C45.7334 19.8667 45.4667 19.8667 28.8 20.2667L12 20.6667V37.3333V54L15.7334 54.4L19.3334 54.8V97.3333V139.867L10.4 140.267C4.80004 140.533 1.33337 141.333 0.933372 142.267C0.533372 143.6 15.3334 144 72 144C128.667 144 143.467 143.6 143.067 142.267C142.667 141.2 138.933 140.533 132.267 140.267L122 139.867V97.3333V54.8L125.067 54.4C127.867 54 128 53.4667 128.4 36.9333L128.8 20H112.133H95.4667L92.8 14.1333C88.6667 4.66666 74.9334 -1.46667 64 1.19999ZM80.6667 7.33333C85.4667 9.86666 89.6 15.0667 90.6667 20L91.6 24H108.133H124.667V37.3333V50.6667L70.4 50.4L16 50V37.3333V24.6667L32.4 24L48.9334 23.3333L50.6667 18.1333C51.7334 15.3333 53.3334 12.1333 54.2667 11.2C60.1334 5.46666 73.2 3.46666 80.6667 7.33333ZM118 97.3333V140H105.333H92.8L92.4 126.267L92 112.667H72H52L51.6 126.267L51.2 140H37.3334H23.3334V97.3333V54.6667H70.6667H118V97.3333ZM70 128.667V140H62.6667H55.3334V128.667V117.333H62.6667H70V128.667ZM88.6667 128.667V140H81.3334H74V128.667V117.333H81.3334H88.6667V128.667Z" fill="#7B52D0"/>
<path d="M68.4 22.1333C68 26.6666 67.6 27.0666 63.4667 27.6C58.1333 28.1333 57.3333 28.6666 58.6667 30.5333C59.0667 31.3333 61.4667 32 64 32C68.2667 32 68.5333 32.2666 68.9333 36.9333C69.4667 43.2 71.8667 43.0666 72.4 36.6666C72.8 32.2666 73.2 32 77.3333 32C79.8667 32 82.2667 31.3333 82.6667 30.5333C84 28.6666 83.2 28.1333 77.8667 27.6C73.7333 27.0666 73.3333 26.6666 72.9333 22.1333C72.6667 19.2 71.8667 17.3333 70.6667 17.3333C69.4667 17.3333 68.6667 19.2 68.4 22.1333Z" fill="#7B52D0"/>
<path d="M41.6 67.4666C39.2 69.8666 41.4667 70.6666 50.8 70.6666C58.2667 70.6666 60.8 70.2666 60.4 68.9333C59.7334 67.2 43.2 65.8666 41.6 67.4666Z" fill="#7B52D0"/>
<path d="M80.6667 68.6666C80.6667 70.2666 82.5334 70.6666 90.8 70.6666C98.2667 70.6666 100.8 70.2666 100.4 68.9333C100 67.8666 96.4 67.2 90.2667 66.9333C82.2667 66.6666 80.6667 66.9333 80.6667 68.6666Z" fill="#7B52D0"/>
<path d="M40.6667 92.6666C40.6667 94.4 42.2667 94.6666 50.2667 94.4C56.4 94.1333 60 93.4666 60.4 92.2666C60.8 91.0666 58.2667 90.6666 50.8 90.6666C42.5334 90.6666 40.6667 91.0666 40.6667 92.6666Z" fill="#7B52D0"/>
<path d="M80.6667 92.6666C80.6667 94.4 82.2667 94.6666 90.2667 94.4C96.4 94.1333 100 93.4666 100.4 92.2666C100.8 91.0666 98.2667 90.6666 90.8 90.6666C82.5334 90.6666 80.6667 91.0666 80.6667 92.6666Z" fill="#7B52D0"/>
</svg>
