<svg width="161" height="148" viewBox="0 0 161 148" fill="none" xmlns="http://www.w3.org/2000/svg">
<path d="M79.2668 1.26668C78.3335 2.20001 77.6668 6.86668 77.6668 12.6V22.3333H54.2001C36.0668 22.3333 30.8668 22.7333 31.2668 23.9333C31.6668 24.8667 33.8001 25.8 36.0668 26.0667L40.3334 26.4667V53.8V81H20.2001C4.73344 81 0.20011 81.4 0.600111 82.6C1.00011 83.5334 3.13344 84.4667 5.40011 84.7334L9.66678 85.1334V114.333V143.533L6.06678 143.933C4.20011 144.2 2.33344 145.133 1.93344 145.933C1.53344 147.267 17.8001 147.667 80.2001 147.667C149.4 147.667 159 147.4 159 145.667C159 144.333 157.667 143.667 155 143.667H151V114.333V85H155.667C158.867 85 160.333 84.3334 160.333 83C160.333 81.2667 157.267 81 140.333 81H120.333V53.8V26.4667L125.267 26.0667C127.933 25.8 130.333 24.8667 130.733 23.9333C131.133 22.7333 125.8 22.3333 107.133 22.3333H83.0001V12.6C83.0001 2.06668 81.8001 -1.26665 79.2668 1.26668ZM116.333 85V143.667H108.333H100.333V119V94.3334H80.3335H60.3334V119V143.8L52.7334 143.4L45.0001 143L44.7334 86.4667C44.6001 55.5333 44.8668 29.2667 45.2668 28.2C45.8001 26.7333 52.2001 26.3333 81.1335 26.3333H116.333V85ZM40.3334 114.333V143.667H27.0001H13.6668V114.333V85H27.0001H40.3334V114.333ZM147 114.333V143.667H133.667H120.333V114.333V85H133.667H147V114.333ZM77.6668 121V143.667H71.0001H64.3334V121V98.3334H71.0001H77.6668V121ZM96.3335 121V143.667H89.6668H83.0001V121V98.3334H89.6668H96.3335V121Z" fill="#7B52D0"/>
<path d="M72.6001 37C59.1334 45.4 64.7334 65 80.6001 65C87.4001 65 93.2667 60.7333 95.0001 54.4667C98.6001 40.7333 84.3334 29.5333 72.6001 37ZM85.0001 39.6667C88.8667 41.1333 92.7334 48.8667 91.4001 52.6C89.6667 57.6667 85.2667 61 80.3334 61C69.2667 61 65.1334 45.6667 74.7334 40.4667C79.1334 38.0667 80.4667 37.9333 85.0001 39.6667Z" fill="#7B52D0"/>
<path d="M26.4667 93.9333C26.0667 94.3333 25.6667 97.9333 25.6667 101.933C25.6667 107.267 26.2001 109 27.6667 109C29.1334 109 29.6667 107.267 29.6667 101.8C29.6667 95 28.4667 91.9333 26.4667 93.9333Z" fill="#7B52D0"/>
<path d="M25.6667 127.667C25.6667 133.667 26.0667 135.8 27.4001 135.267C28.3334 135 29.0001 132.2 29.0001 127.667C29.0001 123.133 28.3334 120.333 27.4001 119.933C26.0667 119.533 25.6667 121.667 25.6667 127.667Z" fill="#7B52D0"/>
<path d="M131.8 93.9333C131.4 94.3333 131 97.9333 131 101.933C131 107.267 131.533 109 133 109C134.467 109 135 107.267 135 101.8C135 95 133.8 91.9333 131.8 93.9333Z" fill="#7B52D0"/>
<path d="M131.533 121.533C130.333 124.733 131.667 134.733 133.4 135.4C134.6 135.8 135 133.667 135 127.8C135 120.2 133.267 117 131.533 121.533Z" fill="#7B52D0"/>
</svg>
