<svg width="154" height="147" viewBox="0 0 154 147" fill="none" xmlns="http://www.w3.org/2000/svg">
<path d="M14 2.66664C12.5334 4.13331 11.3334 6.26664 11.3334 7.46664C11.3334 8.66664 10.1334 11.0666 8.6667 12.9333C5.33337 17.2 5.33337 20 8.40003 24.1333C9.60003 25.8666 11.3334 28.5333 12.1334 30C12.9334 31.3333 14.2667 32.8 15.2 33.0666C17.8667 34 15.6 25.3333 12.2667 21.6L9.60003 18.6666L12.4 15.6C14 13.8666 15.3334 11.3333 15.3334 9.86664C15.3334 6.53331 17.7334 3.99998 20.8 3.99998C23.6 3.99998 27.4667 8.93331 26.4 11.3333C26.1334 12.4 27.0667 13.7333 28.5334 14.6666C31.6 16.2666 32.2667 20.6666 29.6 22.2666C27.3334 23.7333 24.4 30.5333 25.3334 32.1333C26.8 34.4 28.6667 33.3333 30.5334 28.8C31.6 26.4 33.0667 23.8666 33.8667 23.4666C36 22.1333 35.6 15.2 33.3334 13.3333C32.2667 12.4 31.3334 10.5333 31.3334 9.06664C31.3334 7.73331 29.8667 5.06664 28 3.33331C24 -0.800024 17.7334 -1.06669 14 2.66664Z" fill="#7B52D0"/>
<path d="M12.2667 40.8C11.7334 41.3333 11.3334 47.6 11.3334 54.6667V67.4667L6.53341 69.7333C2.66674 71.7333 2.00007 72.5333 2.80007 75.0667C4.66674 81.2 8.26674 87.3333 9.73341 86.9333C10.9334 86.8 11.3334 93.7333 11.3334 114.533V142.533L6.40007 142.933C3.73341 143.2 1.33341 144.133 0.933408 145.067C0.533408 146.4 16.0001 146.667 77.2001 146.4C127.2 146.133 154 145.6 154 144.667C154 143.867 152.533 143.2 150.667 142.933L147.333 142.533L147.067 96.2667L146.667 50L106 49.3333C69.0667 48.6667 64.9334 48.4 60.2667 46L55.2001 43.4667L43.4667 49.7333C36.9334 53.2 31.3334 56 30.9334 56C30.5334 56 30.0001 52.5333 29.7334 48.2667L29.3334 40.6667L21.3334 40.2667C16.8001 40 12.8001 40.2667 12.2667 40.8ZM26.0001 52.4C26.0001 59.2 25.8667 59.6 21.3334 61.7333C18.6667 62.9333 16.2667 64 16.0001 64C15.6001 64 15.3334 59.7333 15.3334 54.6667V45.3333H20.6667H26.0001V52.4ZM80.5334 61.4667C92.8001 68.1333 102.933 73.8667 103.2 74.1333C104.133 75.0667 101.867 81.3333 100.533 81.3333C99.8667 81.3333 89.7334 76.2667 78.1334 70C66.5334 63.7333 56.2667 58.6667 55.2001 58.8C54.1334 58.8 43.7334 64.1333 32.0001 70.5333L10.6667 82.4L8.66674 78.2667C7.46674 75.8667 7.20007 74 8.00007 73.7333C8.80007 73.4667 19.6001 67.6 32.0001 60.6667C44.5334 53.7333 55.6001 48.4 56.5334 48.8C57.6001 49.2 68.4001 54.9333 80.5334 61.4667ZM142.667 68.2667C142.667 76.2667 142.267 82.6667 141.733 82.6667C141.067 82.6667 132.8 82.6667 123.2 82.6667H105.867L106.8 79.6C109.067 72.6667 108.533 71.8667 93.0667 63.4667C84.9334 58.9333 77.7334 54.9333 77.2001 54.2667C76.6667 53.7333 91.2001 53.4667 109.467 53.6L142.667 54V68.2667ZM75.3334 73.2L94.6667 83.7333L95.0667 113.2L95.3334 142.667H89.3334H83.3334V120V97.3333H68.0001H52.6667V101.6C52.5334 104 52.4001 114.133 52.2667 124L52.0001 142L33.7334 142.4L15.3334 142.8V113.467V84.2667L35.0667 73.6C45.8667 67.6 54.9334 62.8 55.3334 62.8C55.7334 62.8 64.6667 67.4667 75.3334 73.2ZM123.467 88H143.333V115.333V142.667H121.333H99.3334V114.533C99.3334 89.4667 99.6001 86.5333 101.467 87.2C102.667 87.6 112.533 88 123.467 88ZM79.3334 122V142.667H68.0001H56.6667V122V101.333H68.0001H79.3334V122Z" fill="#7B52D0"/>
<path d="M24.2667 98.2667C23.7334 98.6667 23.3334 102.933 23.3334 107.6V116H34.6667H46V106.667V97.3333H35.6C29.8667 97.3333 24.6667 97.7333 24.2667 98.2667ZM42 106.667V112H34.6667H27.3334V106.667V101.333H34.6667H42V106.667Z" fill="#7B52D0"/>
</svg>
