<svg width="158" height="154" viewBox="0 0 158 154" fill="none" xmlns="http://www.w3.org/2000/svg">
<path d="M78.1333 1.26666C77.7333 1.66666 77.3333 5.53333 77.3333 9.79999V17.5333L63.0667 17.9333L48.6667 18.3333L48 46.3333L47.3333 74.2L42 75.8L36.6667 77.2667L36.2667 85.4L35.8667 93.5333L22.2667 93.9333L8.66666 94.3333L8.26666 121.933L8 149.533L4.4 149.933C2.4 150.2 0.666662 151.133 0.266662 152.067C-0.133338 153.4 15.8667 153.667 78.9333 153.4C130.8 153.133 157.867 152.6 157.733 151.667C157.6 150.867 155.867 150.2 154 149.933L150.667 149.533L150.533 126.6C150.4 113.933 150.267 101.533 150.133 99L150 94.3333L136.4 93.9333L122.667 93.5333V86.4667C122.667 78.6 121.467 76.8667 114.933 75.5333L110.667 74.7333L110.4 46.4667L110 18.3333L95.7333 17.9333L81.3333 17.5333V9.66666C81.3333 2.33333 80.1333 -0.733341 78.1333 1.26666ZM106.4 47.2667C106.667 64.6 106.267 72.3333 105.333 72.3333C104.533 72.3333 98.4 70.7333 91.7333 68.8667L79.6 65.4L66.5333 68.8667C59.3333 70.7333 53.2 72.3333 52.8 72.3333C52.4 72.3333 52 60.8667 52 47V21.6667L79.0667 21.9333L106 22.3333L106.4 47.2667ZM96.5333 74.4667C106.133 77.1333 114.8 79.8 115.867 80.3333C117.733 81.4 117.733 81.2667 117.467 123.933L117.333 149.667H106H94.6667V125V100.2L79.0667 100.6L63.3333 101L62.9333 125.267L62.6667 149.667H51.3333H40V115V80.4667L45.7333 79C48.8 78.0667 57.3333 75.8 64.6667 73.6667C72 71.5333 78.2667 69.8 78.5333 69.8C78.8 69.6667 86.9333 71.8 96.5333 74.4667ZM36 123.667V149.667H24H12V123.667V97.6667H24H36V123.667ZM145.333 123.667V149.667H134H122.667V123.667V97.6667H134H145.333V123.667ZM90.6667 127V149.667H79.3333H68V127V104.333H79.3333H90.6667V127Z" fill="#7B52D0"/>
<path d="M72.1334 31.5334C68 33.8 65.4667 38.6 65.3334 44.0667C65.3334 50.6 72.5334 57.6667 79.3334 57.6667C86.2667 57.6667 93.3334 50.6 93.3334 43.6667C93.3334 39.8 92.2667 37.6667 88.8 34.2C83.8667 29.2667 78 28.3334 72.1334 31.5334ZM86.2667 37.1334C88.9334 39.8 89.4667 41.2667 88.8 44.7334C87.2 53.2667 78.5334 56.3334 72.6667 50.3334C68.1334 45.9334 68.2667 40.0667 72.8 36.4667C77.6 32.7334 82.1334 33 86.2667 37.1334Z" fill="#7B52D0"/>
<path d="M68.6666 85.8C67.2 87.9333 68.1333 88.2 78.4 88.7333C88.2666 89.2667 91.7333 88.3333 90.1333 85.8C88.9333 83.9333 69.7333 83.8 68.6666 85.8Z" fill="#7B52D0"/>
</svg>
