<svg width="136" height="149" viewBox="0 0 136 149" fill="none" xmlns="http://www.w3.org/2000/svg">
<path d="M65.7334 1.93333C65.4667 2.86666 65.2 6.99999 65.2 11L65.3334 18.3333L70 19L74.6667 19.6667L75.0667 33.9333L75.4667 48.3333L39.0667 48.6L2.66669 49V58.3333V67.6667L9.06669 68.0667L15.3334 68.4667V76.4667V84.3333H10.5334C4.53335 84.3333 4.93335 87.5333 11.0667 88.0667C15.3334 88.4667 15.3334 88.4667 15.3334 96.3333V104.2L11.0667 104.6C8.66669 104.867 6.66669 105.533 6.66669 106.333C6.66669 107 8.66669 107.8 11.0667 108.067L15.3334 108.467V116.333V124.2L11.0667 124.6C8.66669 124.867 6.66669 125.533 6.66669 126.333C6.66669 127 8.66669 127.8 11.0667 128.067L15.3334 128.467V137V145.533L8.00002 145.933C4.00002 146.2 0.666687 146.867 0.666687 147.667C0.666687 148.6 24 149 68 149C112 149 135.333 148.6 135.333 147.667C135.333 146.867 131.733 146.2 127.333 145.933L119.333 145.533V133.667V121.8L123.6 121.4C129.733 120.867 130.133 117.667 124.133 117.667H119.333V111.133C119.333 104.733 119.467 104.467 123.6 104.067C129.333 103.533 130 100.6 124.4 100.067L120 99.6667V91.8C120 84.0667 120.133 83.8 123.733 83.6667C125.733 83.5333 127.733 83 128.133 82.6C129.733 81 127.067 79 123.2 79C119.333 79 119.333 79 119.333 71V63H124C127.2 63 128.667 62.3333 128.667 61C128.667 59.6667 127.2 59 124 59H119.333V51.1333C119.333 43.1333 119.333 43.1333 123.6 42.7333C129.733 42.2 130.133 39 124.133 39H119.333V29V19H124H128.667V9.66666V0.333326H97.4667C73.7334 0.333326 66.1334 0.733326 65.7334 1.93333ZM124.667 9.66666V15H97.3334H70V9.66666V4.33333H97.3334H124.667V9.66666ZM115.333 82.3333V145.667H100H84.8L84.4 124.6L84 103.667L67.7334 103.267L51.3334 102.867V124.333V145.667H36H20.6667V107V68.3333L49.7334 68.0667L78.6667 67.6667L79.0667 43.2667L79.3334 19H97.3334H115.333V82.3333ZM74 58.3333V64.3333L40.4 64.0667L6.66669 63.6667L6.26669 59.9333C5.33335 52.0667 4.40002 52.3333 40.6667 52.3333H74V58.3333ZM79.3334 126.333V145.667H67.3334H55.3334V126.333V107H67.3334H79.3334V126.333Z" fill="#7B52D0"/>
<path d="M90.6667 33.6666C90.2667 34.3333 90.6667 35.3999 91.7333 35.7999C94.8 36.8666 104 35.7999 104 34.3333C104 32.4666 91.7333 31.7999 90.6667 33.6666Z" fill="#7B52D0"/>
<path d="M91.7334 50.4667C90.8 50.8667 90.5334 52.0667 90.9334 53.1334C91.7334 55.2667 100.267 55.6667 103.333 53.6667C105.067 52.4667 105.067 52.2 103.333 51C101.333 49.6667 94.5334 49.4 91.7334 50.4667Z" fill="#7B52D0"/>
<path d="M90.6667 69.6666C90.2667 70.3333 90.6667 71.3999 91.7333 71.7999C94.8 72.8666 104 71.7999 104 70.3333C104 68.4666 91.7333 67.7999 90.6667 69.6666Z" fill="#7B52D0"/>
<path d="M28.6667 78.8667C25.4667 81 28.9334 83.2667 34.8 82.7333C38.4 82.4667 40 81.6667 40 80.3333C40 77.9333 31.7334 77 28.6667 78.8667Z" fill="#7B52D0"/>
<path d="M90.6667 87C90.2667 87.6666 90.6667 88.7333 91.7333 89.1333C94.8 90.2 104 89.1333 104 87.6666C104 85.8 91.7333 85.1333 90.6667 87Z" fill="#7B52D0"/>
<path d="M27.7333 97.9334C28 99 30.5333 99.6667 34 99.6667C37.4667 99.6667 40 99 40.4 97.9334C40.6667 96.8667 38.9333 96.3334 34 96.3334C29.0667 96.3334 27.3333 96.8667 27.7333 97.9334Z" fill="#7B52D0"/>
<path d="M27.6 115.267C28 116.2 30.9334 117.133 34.4 117.4C39.3334 117.667 40.6667 117.4 40.6667 115.8C40.6667 114.2 39.0667 113.667 33.8667 113.667C29.0667 113.667 27.3334 114.2 27.6 115.267Z" fill="#7B52D0"/>
</svg>
