<svg width="880" height="880" viewBox="0 0 880 880" fill="none" xmlns="http://www.w3.org/2000/svg">
<path d="M411.333 1.59997C355.2 5.3333 292.533 22.2666 242.667 47.3333C229.067 54.1333 200.133 71.6 186.667 81.0666C152.667 104.933 120.267 136.267 88.8 176C73.2 195.733 48.4 237.867 38.6667 261.333C36.4 266.8 33.3333 273.733 32 276.667C23.2 296.267 11.2 340.267 5.99999 372.267C1.99999 397.733 1.33332 406.4 1.19999 436C1.06665 499.067 9.99999 546.667 33.0667 605.067L40.5333 624L440 623.733L839.333 623.333L844.267 612C850.267 598 861.467 565.067 865.867 548C874.533 514.133 878.8 479.6 878.8 440.667C878.8 408.267 876.667 385.2 871.2 357.2C867.067 335.6 864.267 324.8 857.067 302.667C840.267 250.667 814.4 204 777.867 159.333C764.267 142.8 729.067 108.133 715.467 97.8666C712.533 95.7333 708.667 92.6666 706.8 90.9333C701.733 86.2666 670.133 65.3333 668.133 65.3333C667.067 65.3333 665.6 64.5333 664.8 63.4666C662.533 60.4 633.067 44.8 615.333 37.3333C567.467 16.8 518 4.9333 464.667 1.3333C442.133 -0.133366 436 -0.133366 411.333 1.59997ZM592 126.267C592 126.933 585.867 135.467 578.533 145.333C571.2 155.2 562.133 167.867 558.4 173.333C554.667 178.8 548.8 186.933 545.333 191.333C541.867 195.733 538.267 200.8 537.2 202.667C536.133 204.533 532.533 210 528.933 214.667C514 235.067 499.067 255.6 496.8 259.333C495.333 261.467 492.533 265.067 490.533 267.2C488.4 269.333 485.867 273.067 484.667 275.467C483.467 278 479.6 283.867 475.867 288.667L469.2 297.333H527.333C559.2 297.333 585.333 297.733 585.333 298.4C585.333 299.2 570.667 315.733 489.333 405.467C438 462.133 322.133 590.267 317.2 595.733C314.4 598.933 310.4 603.6 308.533 606.133C304.933 610.8 302.667 611.867 302.667 609.067C302.667 607.2 314.667 581.333 330.8 548.533C336.533 536.8 341.333 526.4 341.333 525.467C341.333 524.667 343.333 519.867 345.867 514.933C348.267 510 351.867 502.4 353.733 498C355.6 493.6 363.6 476.533 371.6 460C379.6 443.467 388.133 425.733 390.4 420.667C399.2 400.667 401.333 395.6 401.333 395.2C401.333 394.933 376.8 394.667 346.8 394.667H292.267L301.2 372.267C306.133 360 311.467 347.333 312.933 344C316.4 336.667 342 272.533 343.333 268C343.867 266.133 345.467 262 346.933 258.667C348.4 255.333 350.133 251.467 350.8 250C351.467 248.533 357.733 232.933 364.8 215.333C371.867 197.733 379.067 180 380.933 176C385.6 165.867 391.067 152 395.333 139.333C397.333 133.467 399.6 127.867 400.267 126.933C401.333 125.733 422.267 125.333 496.8 125.333C549.2 125.333 592 125.733 592 126.267Z" fill="url(#paint0_linear_13_2)"/>
<path d="M356.667 667.5H375.5V660.667V653.833H348H320.5V706V758.167H349.333H378.167V752V745.833H358H337.333H336.833V745.333V728.667V712V711.5H337.333H355.333H372.833V705.333V699.167H355.333H337.333H336.833V698.667V683.333V668V667.5H337.333H356.667Z" fill="url(#paint1_linear_13_2)" stroke="#7246BE"/>
<path d="M387.2 655.6C387.733 656.933 393.6 673.333 400.267 692C406.933 710.667 412.667 726.933 413.067 728C413.467 729.067 416 736.267 418.667 744L423.467 758L432.8 758.4L442.267 758.8L451.333 733.733C456.267 720 462.667 702 465.333 694C468.133 685.867 472.533 673.467 475.2 666.267L479.867 653.333H471.6H463.333L448.933 695.733C440.933 718.933 434.133 738.933 433.867 740C433.467 741.067 426.667 722.133 418.8 698L404.4 654L395.333 653.6C387.2 653.2 386.4 653.467 387.2 655.6Z" fill="url(#paint2_linear_13_2)"/>
<path d="M515.067 674.933C503.733 704.8 490.133 740.267 486.133 750.267L482.8 758.667H492C500.267 758.667 501.2 758.4 502.133 755.6C502.533 754 504.8 747.733 506.933 741.6L510.933 730.667L531.733 730.933L552.667 731.333L557.467 744.667L562.267 758L571.333 758.4C579.6 758.8 580.267 758.533 579.333 756.4C578.8 755.067 577.067 750.667 575.6 746.667C574.133 742.667 566.4 721.867 558.4 700.667C550.267 679.333 543.067 660 542.267 657.6C540.933 653.333 540.8 653.333 532 653.333H523.2L515.067 674.933ZM548 718.267C548 718.533 540.667 718.667 531.867 718.667H515.733L516.4 714.933C516.8 712.933 520.267 702.133 524.133 690.8L531.067 670.267L539.467 694.133C544.133 707.333 548 718.133 548 718.267Z" fill="url(#paint3_linear_13_2)"/>
<path d="M172.667 788.8C179.2 794.267 213.2 816.533 224.667 822.933C260 842.533 294.8 856.267 333.867 866.133C374 876.267 425.733 881.467 460 878.8C469.867 878 478.933 877.333 480 877.2C490.933 876.933 521.067 872 539.333 867.6C587.067 856.267 624.4 841.2 664.533 817.333C680.4 807.867 710.667 787.2 710.667 785.867C710.667 785.6 588.667 785.333 439.733 785.333L168.667 785.467L172.667 788.8Z" fill="url(#paint4_linear_13_2)"/>
<defs>
<linearGradient id="paint0_linear_13_2" x1="439.999" y1="624" x2="439.999" y2="0.264526" gradientUnits="userSpaceOnUse">
<stop stop-color="#74B0E8"/>
<stop offset="1" stop-color="#7242BD"/>
</linearGradient>
<linearGradient id="paint1_linear_13_2" x1="349.333" y1="758.667" x2="349.333" y2="653.333" gradientUnits="userSpaceOnUse">
<stop stop-color="#7249BF"/>
<stop offset="1" stop-color="#73A7E4"/>
</linearGradient>
<linearGradient id="paint2_linear_13_2" x1="433.412" y1="758.8" x2="433.412" y2="653.333" gradientUnits="userSpaceOnUse">
<stop stop-color="#724DC1"/>
<stop offset="1" stop-color="#73A2E2"/>
</linearGradient>
<linearGradient id="paint3_linear_13_2" x1="531.227" y1="758.667" x2="531.227" y2="653.333" gradientUnits="userSpaceOnUse">
<stop stop-color="#7251C2"/>
<stop offset="1" stop-color="#739ADF"/>
</linearGradient>
<linearGradient id="paint4_linear_13_2" x1="439.667" y1="879.493" x2="439.667" y2="785.333" gradientUnits="userSpaceOnUse">
<stop stop-color="#7B30B6"/>
<stop offset="1" stop-color="#3A92E2" stop-opacity="0.92"/>
</linearGradient>
</defs>
</svg>
