<svg xmlns="http://www.w3.org/2000/svg" version="1.1" xmlns:xlink="http://www.w3.org/1999/xlink" xmlns:svgjs="http://svgjs.dev/svgjs" viewBox="0 0 800 800"><defs>
<linearGradient x1="50%" y1="0%" x2="50%" y2="100%" id="ccchaos-grad">
<stop stop-color="hsl(206, 75%, 49%)" stop-opacity="1" offset="0%">
</stop>
<stop stop-color="hsl(274, 62%, 50%)" stop-opacity="1" offset="100%">
</stop>
</linearGradient>
</defs><g stroke-width="2" stroke="url(#ccchaos-grad)" fill="none" stroke-linecap="round">
<path d="M380.7 118.64C390.12 121.72 399.54 124.85 408.94 127.86 418.36 130.21 427.79 132.29 437.22 134.1 446.7 135.16 456.21 136.02 465.76 136.76 475.4 136.99 485.11 137.33 494.9 137.9 504.81 138.35 514.83 139.3 524.94 140.84 535.2 142.63 545.56 145.19 555.99 148.55 566.53 152.38 577.11 157.07 587.66 162.6 598.22 168.62 608.64 175.43 618.83 182.92 628.84 190.82 638.46 199.31 647.53 208.27 656.2 217.49 664.12 227.07 671.15 236.91 677.53 246.87 682.85 257.01 686.97 267.26 690.29 277.53 692.34 287.85 693.07 298.2 693.04 308.52 691.77 318.85 689.34 329.16 686.42 339.44 682.6 349.72 678.06 359.98 673.54 370.22 668.69 380.47 663.73 390.7 659.41 400.93 655.38 411.15 651.84 421.34 649.43 431.52 647.78 441.43 646.89 451.01 647.2 460.58 648.15 469.79 649.63 478.6 652 487.34 654.59 495.63 657.21 503.41 660.24 511.08 662.93 518.18 665.13 524.67 667.89 533.86 668.39 548.84 665.69 554.73 662.93 558.47 659.09 561.78 654.22 564.76 648.77 568.03 642.39 571.21 635.19 574.47 627.52 578.38 619.18 582.66 610.26 587.46 601.06 593.24 591.43 599.77 581.48 607.1 571.4 615.5 561.1 624.68 550.67 634.53 540.21 645.09 529.68 655.96 519.16 666.83 508.66 677.61 498.18 687.74 487.77 696.8 477.39 704.76 467.09 711.01 456.87 715.2 446.69 717.6 436.59 717.67 426.59 715.36 416.61 711.36 406.71 705.34 396.91 697.62 387.11 689.22 377.63 680.25 368.45 671.22 359.26 662.94 350.37 655.42 341.78 648.96 333.15 644.12 324.81 640.61 316.75 638.42 308.64 637.86 300.79 638.33 293.21 639.55 285.56 641.77 278.14 644.16 270.97 646.4 263.68 648.78 256.61 650.45 249.74 651.2 242.73 651.39 235.9 650.35 229.24 648.03 222.42 644.85 215.75 640.34 209.25 634.61 202.57 628.06 196.04 620.45 189.68 611.93 183.17 602.83 176.84 593.05 170.74 582.78 164.52 572.19 158.55 561.3 152.88 550.24 147.17 539.09 141.8 527.89 136.84 516.74 131.92 505.61 127.46 494.58 123.5 483.7 119.68 472.88 116.42 462.21 113.75 451.72 111.29 441.28 109.46 431 108.3 420.9 107.37 410.82 107.11 400.9 107.57 391.16 108.23 381.42 109.56 372.07 111.5 363.12 113.59 354.15 116.23 345.57 119.38 337.38 122.58 329.17 126.22 321.35 130.25 313.91 134.24 306.43 138.57 299.31 143.18 292.54 147.67 285.69 152.41 279.14 157.36 272.86 162.13 266.43 167.1 260.19 172.24 254.11 177.18 247.76 182.31 241.48 187.61 235.21 192.72 228.57 198.03 221.87 203.54 215.07 208.9 207.85 214.49 200.5 220.33 193.04 226.06 185.22 232.06 177.35 238.33 169.51 244.55 161.51 251.07 153.7 257.88 146.22 264.66 138.89 271.75 132.13 279.14 126.08 286.53 120.53 294.21 115.9 302.17 112.31 310.14 109.43 318.38 107.67 326.88 107.06 335.37 107.09 344.12 108.14 353.1 110.13 362.07 112.39 371.27 115.28 380.69 118.64" stroke-dasharray="9 8" transform="rotate(0, 400, 400)" opacity="0.89">
</path>
<path d="M383.44 129.77C392.56 132.83 401.71 135.94 410.88 138.95 420.06 141.34 429.29 143.49 438.55 145.38 447.85 146.57 457.21 147.55 466.63 148.39 476.12 148.72 485.69 149.11 495.34 149.67 505.09 150.06 514.93 150.87 524.85 152.17 534.87 153.64 544.95 155.79 555.06 158.67 565.24 161.94 575.38 166.01 585.44 170.86 595.45 176.16 605.26 182.22 614.77 188.97 624.07 196.13 632.93 203.88 641.2 212.14 649.05 220.7 656.16 229.65 662.38 238.92 667.99 248.35 672.57 258.01 676.04 267.82 678.77 277.7 680.34 287.68 680.71 297.7 680.41 307.73 679.01 317.79 676.56 327.83 673.72 337.87 670.08 347.89 665.8 357.87 661.58 367.85 657.07 377.79 652.46 387.67 648.46 397.56 644.71 407.39 641.37 417.13 639.07 426.86 637.43 436.26 636.47 445.3 636.59 454.31 637.29 462.93 638.47 471.12 640.47 479.26 642.69 486.92 644.97 494.07 647.66 501.13 650.09 507.65 652.11 513.6 654.76 522.09 655.76 536.22 653.67 542.04 649.83 547.66 636.57 558.41 627.4 564.24 620.58 568.85 613.07 573.89 604.98 579.45 596.59 585.93 587.74 593.08 578.52 600.94 569.14 609.69 559.5 619.08 549.67 628.95 539.79 639.35 529.79 649.87 519.74 660.22 509.69 670.35 499.63 679.74 489.6 688.01 479.59 695.2 469.62 700.71 459.72 704.29 449.85 706.21 440.05 705.98 430.33 703.57 420.63 699.63 411.01 693.84 401.49 686.48 391.96 678.51 382.74 669.97 373.82 661.34 364.88 653.33 356.23 645.96 347.87 639.49 339.47 634.46 331.35 630.6 323.49 627.93 315.57 626.78 307.9 626.6 300.49 627.19 292.98 628.79 285.7 630.66 278.64 632.53 271.47 634.67 264.49 636.3 257.7 637.21 250.77 637.77 244.01 637.29 237.41 635.69 230.65 633.4 224.04 629.92 217.59 625.29 210.97 619.93 204.51 613.52 198.22 606.2 191.79 598.31 185.54 589.68 179.52 580.47 173.4 570.91 167.54 560.95 161.97 550.72 156.39 540.33 151.14 529.81 146.29 519.24 141.51 508.64 137.16 498.06 133.32 487.58 129.61 477.12 126.45 466.78 123.87 456.59 121.5 446.43 119.74 436.42 118.64 426.6 117.77 416.78 117.56 407.14 118.03 397.68 118.72 388.22 120.06 379.15 121.99 370.48 124.06 361.8 126.68 353.49 129.8 345.57 132.96 337.61 136.56 330.01 140.54 322.76 144.49 315.45 148.76 308.47 153.32 301.78 157.76 294.98 162.45 288.44 167.35 282.1 172.07 275.59 176.99 269.22 182.08 262.95 186.97 256.4 192.04 249.88 197.28 243.35 202.32 236.46 207.55 229.5 212.97 222.45 218.22 215.04 223.69 207.52 229.38 199.94 234.95 192.08 240.77 184.22 246.85 176.46 252.84 168.62 259.11 161.04 265.65 153.85 272.15 146.87 278.94 140.49 286.02 134.84 293.07 129.7 300.41 125.48 308.02 122.27 315.62 119.73 323.5 118.26 331.65 117.88 339.78 118.09 348.17 119.25 356.81 121.3 365.44 123.58 374.31 126.45 383.43 129.77" stroke-dasharray="4 4" transform="rotate(4.04, 400, 400)" opacity="0.71">
</path>
<path d="M386.87 140.91C395.69 143.93 404.58 147.01 413.51 150.02 422.45 152.44 431.46 154.66 440.51 156.63 449.61 157.93 458.78 159.04 468.01 159.99 477.3 160.43 486.68 160.9 496.12 161.49 505.64 161.85 515.23 162.56 524.86 163.68 534.56 164.89 544.29 166.7 553.99 169.15 563.71 171.91 573.36 175.4 582.85 179.61 592.25 184.23 601.4 189.57 610.2 195.58 618.77 201.97 626.85 208.97 634.32 216.49 641.38 224.32 647.69 232.58 653.15 241.19 658.03 250 661.94 259.08 664.81 268.35 667.03 277.73 668.18 287.24 668.24 296.83 667.73 306.46 666.23 316.14 663.8 325.81 661.06 335.51 657.61 345.18 653.6 354.81 649.68 364.44 645.5 374.02 641.23 383.51 637.53 393.01 634.04 402.42 630.91 411.69 628.71 420.96 627.09 429.87 626.07 438.38 626.02 446.88 626.49 454.97 627.38 462.61 629.05 470.21 630.92 477.34 632.86 483.98 636.3 493.6 641.67 510.24 642.9 517.33 642.99 524.04 638.29 536.08 633.4 541.87 629.39 546.13 624.54 550.51 618.92 555.14 612.9 560.43 606.2 566.15 598.91 572.39 591.33 579.44 583.26 587.08 574.79 595.32 566.14 604.29 557.19 613.73 548.01 623.5 538.75 633.61 529.33 643.69 519.81 653.46 510.27 662.9 500.67 671.53 491.07 679.02 481.48 685.44 471.89 690.27 462.36 693.27 452.84 694.76 443.36 694.26 433.96 691.76 424.57 687.9 415.24 682.34 406 675.35 396.75 667.79 387.8 659.68 379.13 651.44 370.44 643.73 362.02 636.52 353.88 630.08 345.7 624.9 337.77 620.76 330.09 617.67 322.35 615.98 314.84 615.2 307.56 615.17 300.2 616.15 293.04 617.47 286.08 618.89 279.01 620.71 272.12 622.18 265.4 623.12 258.55 623.88 251.85 623.79 245.31 622.75 238.62 621.19 232.07 618.56 225.68 614.9 219.14 610.6 212.75 605.31 206.53 599.13 200.2 592.41 194.05 584.92 188.13 576.81 182.13 568.32 176.39 559.36 170.94 550.05 165.49 540.53 160.39 530.79 155.66 520.93 151.02 510.98 146.81 500.99 143.08 491.03 139.51 481.05 136.46 471.14 133.98 461.34 131.7 451.55 130.03 441.89 128.99 432.38 128.17 422.88 128 413.53 128.5 404.36 129.21 395.19 130.54 386.39 132.46 377.97 134.51 369.53 137.1 361.45 140.16 353.72 143.29 345.95 146.84 338.51 150.76 331.37 154.65 324.17 158.86 317.23 163.36 310.55 167.75 303.74 172.38 297.13 177.22 290.68 181.9 284.04 186.77 277.49 191.8 271.01 196.65 264.26 201.67 257.5 206.84 250.71 211.83 243.61 217 236.44 222.33 229.19 227.5 221.64 232.87 214.04 238.44 206.41 243.88 198.58 249.55 190.82 255.44 183.21 261.25 175.61 267.31 168.32 273.63 161.46 279.89 154.87 286.41 148.9 293.21 143.68 299.97 138.97 307 135.15 314.31 132.32 321.59 130.12 329.14 128.93 336.96 128.77 344.76 129.14 352.82 130.4 361.15 132.49 369.46 134.79 378.03 137.63 386.86 140.9" stroke-dasharray="9 0" transform="rotate(8.08, 400, 400)" opacity="0.70">
</path>
<path d="M390.83 152.04C399.37 155.03 407.99 158.08 416.66 161.07 425.35 163.52 434.12 165.79 442.94 167.84 451.8 169.26 460.73 170.48 469.72 171.56 478.77 172.13 487.88 172.69 497.05 173.33 506.26 173.71 515.53 174.36 524.8 175.35 534.11 176.36 543.41 177.88 552.63 179.97 561.83 182.29 570.91 185.26 579.78 188.89 588.54 192.86 597 197.52 605.07 202.8 612.88 208.45 620.18 214.68 626.88 221.45 633.17 228.51 638.73 236.04 643.46 243.93 647.67 252.05 650.97 260.47 653.31 269.11 655.07 277.9 655.86 286.85 655.67 295.91 655 305.04 653.44 314.24 651.06 323.46 648.43 332.71 645.19 341.96 641.45 351.15 637.82 360.37 633.97 369.53 630.03 378.59 626.61 387.65 623.38 396.61 620.44 405.41 618.35 414.22 616.76 422.65 615.68 430.68 615.49 438.7 615.74 446.31 616.37 453.49 617.72 460.63 619.26 467.34 620.88 473.59 623.84 482.7 628.63 498.73 629.83 505.76 630.11 512.61 626.41 525.56 622.3 532.11 618.89 536.91 614.71 541.9 609.8 547.19 604.52 553.08 598.58 559.4 592.06 566.2 585.26 573.69 577.95 581.69 570.23 590.16 562.32 599.2 554.08 608.57 545.57 618.1 536.96 627.82 528.15 637.38 519.2 646.51 510.22 655.24 501.13 663.1 492.01 669.82 482.88 675.51 473.72 679.68 464.58 682.15 455.45 683.23 446.34 682.5 437.27 679.94 428.22 676.17 419.21 670.85 410.26 664.21 401.31 657.07 392.63 649.38 384.21 641.52 375.78 634.12 367.59 627.11 359.65 620.73 351.68 615.46 343.94 611.08 336.43 607.64 328.86 605.46 321.5 604.12 314.35 603.5 307.12 603.86 300.07 604.61 293.21 605.56 286.24 606.97 279.43 608.19 272.78 609.04 266.02 609.84 259.39 609.98 252.91 609.34 246.3 608.33 239.82 606.39 233.5 603.54 227.05 600.17 220.75 595.88 214.62 590.73 208.4 585.1 202.37 578.71 196.56 571.67 190.7 564.26 185.1 556.33 179.79 547.98 174.49 539.4 169.53 530.53 164.96 521.45 160.47 512.26 156.4 502.95 152.81 493.6 149.37 484.2 146.44 474.81 144.07 465.48 141.9 456.15 140.31 446.89 139.33 437.75 138.58 428.62 138.45 419.6 138.97 410.73 139.69 401.85 141.02 393.32 142.9 385.13 144.94 376.92 147.48 369.03 150.49 361.45 153.56 353.82 157.05 346.48 160.89 339.4 164.72 332.25 168.87 325.31 173.29 318.58 177.62 311.71 182.19 305 186.96 298.4 191.6 291.61 196.41 284.88 201.39 278.18 206.2 271.24 211.17 264.28 216.28 257.28 221.23 250.01 226.33 242.69 231.59 235.32 236.7 227.71 241.98 220.08 247.44 212.5 252.78 204.78 258.32 197.19 264.07 189.81 269.72 182.51 275.61 175.56 281.73 169.09 287.78 162.92 294.08 157.39 300.63 152.61 307.13 148.33 313.9 144.93 320.93 142.47 327.92 140.59 335.19 139.67 342.71 139.71 350.2 140.23 357.97 141.59 365.99 143.71 374 146 382.28 148.82 390.82 152.04" stroke-dasharray="4 2" transform="rotate(12.12, 400, 400)" opacity="0.90">
</path><path d="M395.18 163.18C403.44 166.11 411.78 169.12 420.18 172.09 428.59 174.56 437.09 176.88 445.64 179 454.22 180.53 462.88 181.88 471.58 183.08 480.32 183.78 489.12 184.46 497.94 185.17 506.79 185.6 515.66 186.23 524.51 187.14 533.36 188.01 542.16 189.31 550.85 191.1 559.48 193.04 567.95 195.56 576.17 198.67 584.24 202.06 591.99 206.07 599.32 210.68 606.38 215.6 612.93 221.1 618.88 227.11 624.43 233.41 629.29 240.17 633.36 247.32 636.95 254.7 639.7 262.4 641.56 270.36 642.93 278.48 643.42 286.79 643.02 295.25 642.23 303.8 640.65 312.44 638.35 321.12 635.86 329.85 632.83 338.6 629.36 347.31 626.02 356.05 622.48 364.73 618.85 373.32 615.71 381.92 612.72 390.41 609.97 398.75 607.99 407.09 606.43 415.06 605.31 422.66 604.99 430.24 605.05 437.44 605.44 444.24 606.5 451.02 607.72 457.4 609.02 463.38 611.53 472.15 615.69 487.93 616.8 495.1 617.18 502.25 614.27 516.3 610.81 523.62 607.94 528.95 604.34 534.51 600.07 540.37 595.47 546.79 590.24 553.59 584.44 560.81 578.38 568.61 571.82 576.81 564.83 585.36 557.65 594.33 550.11 603.49 542.28 612.68 534.34 621.92 526.17 630.89 517.82 639.35 509.41 647.33 500.88 654.43 492.26 660.4 483.63 665.4 474.94 668.96 466.23 670.93 457.52 671.65 448.8 670.71 440.1 668.12 431.41 664.45 422.73 659.37 414.1 653.08 405.46 646.33 397.06 639.06 388.9 631.6 380.72 624.5 372.77 617.71 365.04 611.43 357.28 606.11 349.72 601.56 342.38 597.81 334.98 595.2 327.77 593.36 320.74 592.19 313.64 591.96 306.71 592.15 299.94 592.58 293.08 593.54 286.36 594.43 279.79 595.07 273.11 595.81 266.57 596.03 260.16 595.63 253.65 594.99 247.26 593.58 241.02 591.37 234.68 588.76 228.49 585.32 222.48 581.09 216.39 576.45 210.49 571.07 204.82 565.04 199.12 558.67 193.67 551.74 188.51 544.36 183.39 536.74 178.59 528.77 174.18 520.53 169.85 512.15 165.95 503.59 162.5 494.92 159.21 486.19 156.41 477.4 154.15 468.6 152.09 459.79 150.59 451 149.69 442.27 148.99 433.54 148.9 424.89 149.43 416.33 150.17 407.77 151.48 399.5 153.34 391.53 155.34 383.53 157.83 375.81 160.77 368.35 163.78 360.85 167.19 353.57 170.96 346.52 174.71 339.38 178.78 332.42 183.12 325.61 187.38 318.67 191.88 311.84 196.58 305.09 201.15 298.17 205.91 291.27 210.82 284.39 215.58 277.3 220.5 270.18 225.56 263.03 230.46 255.67 235.51 248.27 240.7 240.86 245.75 233.28 250.96 225.72 256.33 218.26 261.58 210.74 267.01 203.4 272.64 196.32 278.16 189.37 283.9 182.82 289.84 176.78 295.72 171.06 301.82 165.99 308.16 161.66 314.45 157.82 320.98 154.82 327.76 152.72 334.5 151.16 341.5 150.49 348.74 150.72 355.97 151.38 363.45 152.81 371.19 154.95 378.92 157.24 386.91 160.02 395.17 163.17" stroke-dasharray="4 4" transform="rotate(16.16, 400, 400)" opacity="0.39">
</path>
<path d="M399.73 174.31C407.69 177.19 415.74 180.16 423.85 183.09 431.97 185.58 440.17 187.93 448.42 190.11 456.69 191.74 465.02 193.21 473.38 194.54 481.77 195.38 490.19 196.18 498.61 196.99 507.05 197.5 515.47 198.16 523.83 199.03 532.17 199.82 540.42 200.96 548.53 202.5 556.55 204.14 564.37 206.28 571.91 208.94 579.3 211.82 586.33 215.26 592.93 219.24 599.27 223.49 605.09 228.28 610.31 233.57 615.18 239.12 619.38 245.12 622.84 251.52 625.88 258.14 628.15 265.1 629.6 272.34 630.63 279.74 630.87 287.37 630.32 295.16 629.45 303.06 627.88 311.08 625.68 319.18 623.34 327.33 620.53 335.52 617.32 343.69 614.27 351.9 611.03 360.08 607.71 368.17 604.83 376.28 602.07 384.3 599.51 392.18 597.63 400.06 596.11 407.6 594.95 414.81 594.52 422 594.41 428.85 594.59 435.34 595.37 441.83 596.3 447.97 597.3 453.77 599.36 462.36 602.86 478.19 603.83 485.62 604.24 493.15 601.91 508.39 599 516.43 596.57 522.25 593.49 528.3 589.78 534.63 585.79 541.45 581.21 548.61 576.08 556.11 570.72 564.07 564.86 572.33 558.56 580.82 552.09 589.59 545.25 598.42 538.09 607.17 530.82 615.86 523.29 624.18 515.55 631.93 507.75 639.17 499.79 645.52 491.7 650.77 483.6 655.1 475.4 658.09 467.14 659.61 458.89 660.01 450.59 658.9 442.28 656.29 433.97 652.73 425.66 647.89 417.35 641.95 409.05 635.59 400.95 628.73 393.05 621.66 385.14 614.88 377.43 608.33 369.91 602.18 362.37 596.86 355.01 592.18 347.83 588.19 340.61 585.21 333.55 582.92 326.65 581.25 319.7 580.46 312.88 580.09 306.22 580.01 299.48 580.48 292.86 580.97 286.38 581.33 279.82 581.88 273.37 582.05 267.06 581.75 260.66 581.33 254.38 580.28 248.25 578.56 242.04 576.54 235.98 573.8 230.1 570.34 224.17 566.54 218.42 562.06 212.91 556.95 207.38 551.54 202.11 545.57 197.13 539.11 192.19 532.44 187.57 525.36 183.33 517.97 179.19 510.44 175.45 502.66 172.16 494.71 169.03 486.68 166.37 478.54 164.23 470.32 162.28 462.08 160.88 453.8 160.04 445.53 159.41 437.25 159.36 428.98 159.9 420.76 160.64 412.54 161.94 404.55 163.75 396.79 165.71 389.02 168.14 381.46 171.01 374.11 173.95 366.72 177.27 359.51 180.94 352.46 184.62 345.34 188.6 338.35 192.84 331.47 197.02 324.48 201.43 317.55 206.05 310.67 210.56 303.65 215.24 296.63 220.09 289.62 224.8 282.43 229.66 275.23 234.65 268.01 239.5 260.63 244.5 253.25 249.63 245.89 254.62 238.42 259.76 231.03 265.05 223.77 270.22 216.53 275.57 209.51 281.08 202.8 286.49 196.26 292.09 190.15 297.89 184.56 303.62 179.32 309.55 174.72 315.7 170.85 321.79 167.44 328.12 164.84 334.67 163.08 341.18 161.82 347.94 161.39 354.93 161.79 361.9 162.58 369.12 164.07 376.58 166.21 384.04 168.49 391.75 171.22 399.72 174.31" stroke-dasharray="7 8" transform="rotate(20.200000000000003, 400, 400)" opacity="0.21">
</path>
<path d="M404.28 185.44C411.95 188.27 419.7 191.17 427.49 194.07 435.3 196.56 443.17 198.93 451.08 201.17 459 202.9 466.96 204.48 474.94 205.93 482.93 206.92 490.93 207.85 498.9 208.77 506.87 209.38 514.79 210.09 522.62 210.98 530.42 211.72 538.09 212.76 545.57 214.13 552.97 215.54 560.12 217.37 566.98 219.66 573.67 222.09 580 225.03 585.89 228.46 591.53 232.11 596.66 236.25 601.21 240.86 605.45 245.69 609.04 250.97 611.96 256.64 614.51 262.51 616.35 268.72 617.45 275.24 618.2 281.9 618.24 288.82 617.58 295.93 616.67 303.14 615.15 310.5 613.06 317.97 610.89 325.5 608.29 333.09 605.36 340.7 602.58 348.35 599.62 355.99 596.59 363.58 593.96 371.18 591.42 378.72 589.04 386.16 587.27 393.6 585.78 400.75 584.61 407.6 584.08 414.44 583.82 421 583.8 427.25 584.66 436.5 587.34 453.71 588.73 461.77 590.17 469.79 591.33 485.51 590.74 493.45 590.04 499.03 588.77 504.71 586.93 510.56 584.88 516.76 582.23 523.19 579.01 529.88 575.57 536.97 571.56 544.34 567.04 551.97 562.31 559.95 557.1 568.12 551.47 576.41 545.67 584.87 539.5 593.28 532.99 601.5 526.38 609.58 519.49 617.22 512.36 624.24 505.17 630.74 497.78 636.36 490.25 640.92 482.68 644.62 475 647.08 467.22 648.2 459.44 648.31 451.58 647.06 443.68 644.45 435.78 641.01 427.85 636.42 419.89 630.81 411.94 624.84 404.15 618.38 396.53 611.7 388.91 605.26 381.45 598.96 374.16 592.97 366.85 587.69 359.69 582.93 352.69 578.76 345.65 575.48 338.76 572.79 332.01 570.67 325.21 569.36 318.53 568.47 311.99 567.88 305.38 567.85 298.89 567.91 292.53 567.92 286.09 568.2 279.77 568.22 273.57 567.89 267.31 567.54 261.17 566.7 255.17 565.3 249.12 563.71 243.22 561.5 237.49 558.66 231.74 555.57 226.17 551.85 220.83 547.53 215.5 542.97 210.42 537.86 205.63 532.27 200.9 526.48 196.48 520.27 192.43 513.7 188.48 507 184.92 500 181.8 492.78 178.83 485.48 176.32 478 174.31 470.39 172.48 462.75 171.17 455.02 170.4 447.22 169.83 439.42 169.82 431.57 170.37 423.71 171.11 415.84 172.38 408.14 174.15 400.62 176.06 393.08 178.42 385.69 181.2 378.46 184.06 371.2 187.29 364.06 190.86 357.04 194.44 349.96 198.31 342.96 202.45 336.04 206.54 329.02 210.86 322.04 215.37 315.09 219.8 308.02 224.41 300.95 229.17 293.88 233.81 286.68 238.6 279.48 243.53 272.28 248.32 264.98 253.26 257.7 258.32 250.49 263.25 243.23 268.33 236.08 273.54 229.12 278.64 222.22 283.89 215.59 289.3 209.3 294.62 203.22 300.11 197.58 305.77 192.48 311.36 187.73 317.14 183.61 323.12 180.19 329.04 177.21 335.17 174.99 341.52 173.56 347.82 172.58 354.35 172.38 361.1 172.93 367.83 173.82 374.79 175.36 381.99 177.51 389.17 179.76 396.6 182.43 404.27 185.44" stroke-dasharray="4 11" transform="rotate(24.24, 400, 400)" opacity="0.55">
</path>
<path d="M408.66 196.58C416.03 199.33 423.45 202.17 430.91 205.02 438.37 207.5 445.89 209.9 453.42 212.17 460.96 213.98 468.52 215.67 476.07 217.24 483.63 218.37 491.16 219.44 498.65 220.49 506.11 221.21 513.5 222.01 520.77 222.94 527.99 223.7 535.05 224.68 541.9 225.95 548.65 227.19 555.15 228.79 561.33 230.78 567.34 232.85 572.99 235.37 578.19 238.32 585.41 243.22 596.77 255.48 600.73 262.76 602.85 267.91 604.32 273.41 605.14 279.21 605.66 285.15 605.55 291.35 604.83 297.77 603.91 304.29 602.45 310.98 600.49 317.81 598.49 324.69 596.12 331.67 593.45 338.71 590.93 345.78 588.26 352.87 585.5 359.96 583.11 367.05 580.78 374.12 578.57 381.13 576.9 388.14 575.47 394.92 574.28 401.46 573.67 408 573.28 414.3 573.09 420.37 573.6 429.38 575.48 446.48 576.5 454.68 577.62 462.91 578.49 479.38 577.94 487.81 577.35 493.7 576.26 499.72 574.67 505.9 572.92 512.39 570.63 519.08 567.84 525.99 564.85 533.22 561.35 540.65 557.37 548.26 553.22 556.12 548.61 564.07 543.59 572.05 538.42 580.08 532.87 587.98 526.99 595.61 521.01 603.03 514.74 609.97 508.21 616.26 501.62 622.03 494.81 626.94 487.83 630.85 480.82 633.97 473.65 635.95 466.37 636.69 459.07 636.56 451.67 635.19 444.2 632.61 436.73 629.3 429.19 624.95 421.6 619.68 414.02 614.08 406.56 608.02 399.25 601.73 391.93 595.62 384.74 589.59 377.69 583.8 370.63 578.59 363.69 573.8 356.89 569.51 350.06 565.98 343.35 562.97 336.76 560.46 330.14 558.68 323.62 557.3 317.22 556.22 310.78 555.69 304.43 555.29 298.21 554.93 291.93 554.86 285.76 554.64 279.71 554.18 273.61 553.79 267.63 553.01 261.8 551.79 255.93 550.47 250.21 548.64 244.67 546.26 239.11 543.71 233.75 540.61 228.61 536.96 223.5 533.12 218.63 528.77 214.05 523.94 209.53 518.94 205.33 513.52 201.48 507.73 197.73 501.81 194.37 495.57 191.42 489.05 188.62 482.47 186.26 475.66 184.38 468.66 182.67 461.63 181.46 454.45 180.76 447.15 180.26 439.85 180.28 432.44 180.83 424.96 181.57 417.47 182.82 410.09 184.53 402.82 186.39 395.53 188.68 388.35 191.36 381.27 194.13 374.16 197.26 367.12 200.71 360.17 204.18 353.16 207.94 346.2 211.95 339.28 215.93 332.3 220.14 325.32 224.55 318.37 228.88 311.33 233.39 304.29 238.06 297.26 242.62 290.13 247.33 283.02 252.18 275.95 256.91 268.81 261.77 261.74 266.75 254.76 271.62 247.8 276.62 240.99 281.75 234.39 286.78 227.91 291.95 221.72 297.26 215.9 302.48 210.31 307.86 205.17 313.39 200.58 318.86 196.32 324.49 192.68 330.31 189.7 336.07 187.14 342.02 185.28 348.17 184.17 354.28 183.45 360.59 183.44 367.1 184.13 373.6 185.11 380.31 186.69 387.23 188.82 394.15 191.04 401.29 193.65 408.65 196.57" stroke-dasharray="1 4" transform="rotate(28.28, 400, 400)" opacity="0.07">
</path>
<path d="M412.68 207.71C419.72 210.39 426.81 213.16 433.91 215.95 441.01 218.41 448.14 220.81 455.27 223.12 462.4 225 469.53 226.78 476.63 228.46 483.72 229.72 490.76 230.93 497.72 232.11 504.66 232.97 511.49 233.88 518.17 234.88 524.8 235.68 531.25 236.67 537.47 237.88 546.5 239.73 562.81 245.11 569.87 248.76 576.17 252.95 585.92 263.55 589.21 269.9 591.54 276.8 592.94 292.35 592.08 300.86 591.18 306.69 589.8 312.73 587.99 318.92 586.17 325.17 584.02 331.54 581.6 338 579.34 344.5 576.93 351.05 574.44 357.64 572.28 364.24 570.15 370.85 568.11 377.45 566.54 384.06 565.15 390.49 563.97 396.75 563.29 403 562.79 409.09 562.44 415 562.64 423.83 563.79 440.9 564.45 449.24 565.26 457.68 565.76 474.77 565.2 483.59 564.66 489.71 563.7 495.96 562.29 502.36 560.77 509.01 558.79 515.83 556.34 522.81 553.74 530.02 550.68 537.38 547.18 544.83 543.53 552.44 539.46 560.05 534.99 567.61 530.39 575.13 525.43 582.45 520.14 589.44 514.75 596.17 509.07 602.39 503.12 607.97 497.12 613.03 490.88 617.27 484.44 620.57 477.97 623.15 471.33 624.69 464.54 625.11 457.74 624.76 450.81 623.31 443.79 620.76 436.75 617.59 429.63 613.48 422.43 608.54 415.22 603.31 408.12 597.64 401.12 591.73 394.12 585.97 387.23 580.23 380.44 574.65 373.65 569.55 366.96 564.79 360.38 560.42 353.77 556.72 347.27 553.45 340.88 550.6 334.45 548.42 328.12 546.59 321.9 545.06 315.64 544.05 309.47 543.2 303.42 542.43 297.32 541.99 291.33 541.47 285.46 540.79 276.66 539.83 259.72 536.26 251.63 533.4 243.73 529.92 229.06 520.35 222.39 514.31 218.11 510 214.13 505.28 210.49 500.18 206.96 494.97 203.8 489.43 201.03 483.59 198.41 477.68 196.21 471.51 194.46 465.11 192.88 458.68 191.76 452.06 191.14 445.26 190.69 438.46 190.74 431.51 191.3 424.42 192.03 417.34 193.24 410.29 194.9 403.3 196.69 396.3 198.9 389.35 201.48 382.45 204.15 375.54 207.16 368.66 210.48 361.82 213.83 354.94 217.46 348.08 221.34 341.24 225.2 334.36 229.29 327.47 233.56 320.61 237.79 313.68 242.19 306.76 246.74 299.86 251.21 292.91 255.82 285.99 260.56 279.13 265.21 272.26 269.99 265.48 274.88 258.84 279.67 252.25 284.59 245.84 289.63 239.69 294.58 233.67 299.65 227.97 304.86 222.65 309.98 217.58 315.25 212.97 320.65 208.88 326 205.12 331.49 201.94 337.15 199.4 342.76 197.23 348.53 195.73 354.48 194.9 360.4 194.42 366.5 194.59 372.78 195.4 379.04 196.46 385.5 198.06 392.15 200.16 398.79 202.34 405.63 204.87 412.67 207.71" stroke-dasharray="4 6" transform="rotate(32.32, 400, 400)" opacity="0.55">
</path><path d="M416.18 218.85C422.88 221.44 429.61 224.13 436.33 226.86 443.05 229.29 449.77 231.68 456.48 234 463.18 235.94 469.85 237.81 476.46 239.58 483.06 240.97 489.59 242.32 496.01 243.63 502.4 244.63 508.67 245.66 514.76 246.75 523.71 248.15 540.33 251.63 547.83 253.91 554.77 256.47 566.4 263.32 570.96 267.66 574.7 272.5 579.32 284.04 580.17 290.67 580.25 297.72 577.85 313.18 575.56 321.47 573.93 327.11 572 332.89 569.82 338.8 567.81 344.74 565.65 350.77 563.41 356.88 561.46 363 559.53 369.17 557.64 375.39 556.17 381.61 554.84 387.71 553.67 393.7 552.64 402.64 551.78 420.02 551.79 428.52 552.25 437.04 553.08 454.07 553.18 462.71 553.27 468.61 553.07 474.59 552.55 480.66 552.03 486.9 551.14 493.27 549.87 499.76 548.52 506.43 546.76 513.24 544.6 520.15 542.32 527.22 539.63 534.36 536.54 541.53 533.33 548.77 529.72 555.95 525.75 562.99 521.67 569.94 517.24 576.63 512.49 582.94 507.66 588.97 502.53 594.48 497.14 599.35 491.68 603.73 485.99 607.34 480.09 610.07 474.15 612.16 468.03 613.3 461.74 613.44 455.43 612.91 448.98 611.4 442.4 608.91 435.82 605.89 429.12 602.03 422.32 597.41 415.52 592.53 408.78 587.25 402.13 581.72 395.47 576.3 388.89 570.86 382.39 565.52 375.89 560.58 369.46 555.88 363.13 551.5 356.78 547.67 350.52 544.2 344.34 541.09 338.15 538.56 332.04 536.35 326.02 534.4 319.97 532.95 314.02 531.67 308.17 530.49 299.4 529.22 282.39 526.58 274.2 524.87 266.14 522.94 250.89 517.24 243.78 513.34 236.97 508.91 224.76 497.83 219.47 491.27 214.69 484.22 207.17 468.45 204.54 459.84 203.08 453.98 202.07 447.9 201.51 441.6 201.13 435.3 201.21 428.81 201.77 422.14 202.49 415.47 203.66 408.79 205.26 402.11 206.98 395.43 209.09 388.76 211.56 382.1 214.12 375.42 217 368.75 220.19 362.09 223.41 355.41 226.9 348.72 230.63 342.05 234.35 335.35 238.3 328.64 242.43 321.95 246.52 315.23 250.79 308.52 255.21 301.85 259.56 295.17 264.06 288.54 268.69 282 273.24 275.48 277.91 269.08 282.69 262.85 287.39 256.7 292.21 250.76 297.14 245.1 302 239.59 306.97 234.42 312.06 229.64 317.07 225.09 322.22 221.01 327.49 217.42 335.38 212.79 351.8 206.92 360.35 205.76 366.07 205.5 371.95 205.83 377.99 206.74 384.02 207.85 390.21 209.46 396.58 211.53 402.93 213.65 409.47 216.1 416.17 218.84" stroke-dasharray="4 5" transform="rotate(36.36, 400, 400)" opacity="0.47"></path><path d="M419.01 229.98C425.36 232.48 431.7 235.09 438.03 237.74 444.35 240.12 450.65 242.5 456.91 244.82 469.4 248.45 481.66 251.83 493.45 255.01 505.1 257.01 516.11 259.22 526.19 261.83 535.88 263.95 544.4 266.96 551.44 271 557.85 275.1 562.57 280.47 565.44 287.07 567.64 293.93 568.03 301.99 566.66 311.05 565.03 320.32 562.09 330.45 558.11 341.21 556.33 346.62 554.41 352.16 552.4 357.81 550.66 363.47 548.9 369.23 547.17 375.08 545.17 383.83 542.27 401.05 541.35 409.53 541.21 420.88 541.14 432.15 540.91 443.39 541.42 454.96 541.21 466.77 540.05 478.85 538.96 491.48 536.53 504.52 532.71 517.82 528.59 531.48 522.98 545.08 515.98 558.09 508.65 570.57 500.04 581.59 490.33 590.4 480.42 597.39 469.58 601.31 457.99 601.71 452.17 601.03 446.19 599.48 440.07 597.07 433.94 594.19 427.67 590.57 421.29 586.27 414.9 581.75 408.55 576.85 402.26 571.7 395.96 566.62 389.71 561.49 383.53 556.41 371.15 547.28 359 539.01 347.17 531.91 335.29 526.81 323.69 522.66 312.48 519.17 301.21 517.01 290.34 514.71 280.02 511.88 269.72 509.41 260.05 505.8 251.21 500.88 242.57 495.8 234.9 489.24 228.44 481.29 222.41 473.12 217.73 463.65 214.63 453.07 212.84 444.96 211.62 427.53 212.23 418.27 212.94 412.03 214.07 405.73 215.6 399.41 217.24 393.08 219.25 386.73 221.61 380.35 226.54 367.59 232.69 354.73 239.81 341.89 246.95 329 254.9 316.12 263.47 303.43 271.85 290.81 280.79 278.53 290.16 266.93 299.26 255.75 308.83 245.6 318.8 236.9 328.52 229.13 338.74 223.2 349.41 219.41 359.93 216.81 371.01 216.38 382.61 218.14 388.39 219.29 394.31 220.9 400.38 222.92 406.44 224.97 412.65 227.34 419 229.98" stroke-dasharray="11 8" transform="rotate(40.400000000000006, 400, 400)" opacity="0.21"></path><path d="M421.05 241.11C433.01 245.76 444.86 250.68 456.46 255.57 468.03 259.3 479.27 262.85 489.98 266.23 500.55 268.53 510.42 270.98 519.35 273.73 527.93 275.92 535.37 278.83 541.43 282.59 546.95 286.27 550.95 291.05 553.28 296.91 555.1 302.91 555.33 310.01 554.03 318.1 552.58 326.32 549.98 335.41 546.46 345.23 543.5 355.09 540.17 365.57 536.71 376.56 534.49 387.55 532.55 398.54 530.9 409.48 530.45 420.49 530.02 431.6 529.43 442.78 529.54 454.23 529.04 465.96 527.73 477.93 526.57 490.29 524.27 502.92 520.77 515.63 517.08 528.46 512.07 541.03 505.8 552.83 499.28 563.97 491.56 573.61 482.8 581.1 473.87 586.95 464 590 453.36 589.9 442.67 587.85 431.3 582.84 419.38 575.14 407.46 566.66 395.59 557.11 383.9 547.31 372.21 538.52 360.67 530.33 349.41 523.04 338.12 517.45 327.07 512.66 316.4 508.49 305.71 505.58 295.4 502.67 285.64 499.43 275.93 496.67 266.85 493.05 258.57 488.39 250.51 483.72 243.38 477.78 237.41 470.61 231.84 463.29 227.55 454.76 224.73 445.13 222.46 435.42 221.74 424.71 222.7 413.09 224.21 401.48 227.25 389.55 231.62 377.49 236.3 365.44 242.13 353.23 248.89 341.03 255.71 328.85 263.31 316.71 271.53 304.82 279.61 293.09 288.24 281.79 297.29 271.22 306.13 261.13 315.41 252.1 325.05 244.5 334.5 237.77 344.39 232.77 354.67 229.74 364.83 227.74 375.46 227.69 386.53 229.6 397.55 232.07 409.08 236 421.04 241.11" stroke-dasharray="10 6" transform="rotate(44.44, 400, 400)" opacity="0.23"></path><path d="M422.22 252.25C433.41 256.7 444.41 261.46 455.08 266.25 465.72 270.04 475.95 273.73 485.6 277.28 495.11 279.86 503.9 282.55 511.76 285.47 519.32 287.8 525.78 290.71 530.97 294.31 537.41 299.9 542.59 315.85 541.47 326.26 540.22 333.58 537.97 341.78 534.89 350.74 532.32 359.72 529.38 369.4 526.24 379.71 524.17 390.02 522.25 400.49 520.51 411.03 519.8 421.66 519.06 432.47 518.16 443.43 517.89 454.59 517.11 466.03 515.64 477.64 514.37 489.48 512.14 501.47 508.86 513.36 505.5 525.2 500.97 536.61 495.33 547.12 489.51 556.91 482.59 565.2 474.68 571.47 466.64 576.26 457.69 578.53 447.97 578.02 438.19 575.88 427.72 571.13 416.67 564.01 405.61 556.21 394.53 547.38 383.56 538.21 372.59 529.82 361.73 521.81 351.1 514.46 340.46 508.52 330.05 503.23 319.97 498.49 309.92 494.89 300.24 491.37 291.08 487.69 282.02 484.55 273.56 480.78 265.88 476.2 258.42 471.72 251.86 466.2 246.38 459.61 241.28 452.96 237.38 445.2 234.85 436.41 232.82 427.56 232.21 417.72 233.17 406.98 234.62 396.24 237.49 385.13 241.61 373.85 246.02 362.6 251.51 351.18 257.89 339.78 264.34 328.44 271.56 317.19 279.38 306.25 287.11 295.53 295.38 285.3 304.06 275.85 312.58 266.9 321.52 259 330.79 252.48 339.92 246.76 349.44 242.62 359.28 240.29 369.03 238.83 379.19 239.11 389.69 241.14 400.15 243.6 411.02 247.38 422.22 252.25" stroke-dasharray="1 1" transform="rotate(48.48, 400, 400)" opacity="0.41"></path><path d="M422.47 263.38C432.87 267.63 443 272.21 452.74 276.87 462.44 280.68 471.69 284.46 480.32 288.15 488.83 290.98 496.6 293.9 503.47 297 512.89 301 525.64 311.35 528.65 318.24 529.95 323.06 530.05 328.77 529 335.33 527.96 341.91 526.04 349.34 523.37 357.53 521.18 365.73 518.6 374.67 515.77 384.31 513.85 393.95 511.97 403.86 510.17 413.94 509.26 424.07 508.26 434.46 507.08 445.02 506.49 455.71 505.43 466.63 503.8 477.65 502.4 488.78 500.18 499.93 497.07 510.82 493.95 521.55 489.82 531.7 484.7 540.89 479.47 549.36 473.24 556.37 466.11 561.49 458.87 565.33 450.78 566.93 441.93 566.09 433.04 563.9 423.45 559.43 413.26 552.87 403.08 545.74 392.81 537.63 382.6 529.1 372.41 521.18 362.28 513.43 352.33 506.14 342.41 500 332.68 494.35 323.27 489.16 313.91 484.97 304.91 480.91 296.41 476.78 288.03 473.21 280.23 469.2 273.17 464.58 266.34 460.15 260.35 454.88 255.37 448.71 250.75 442.55 247.24 435.42 244.99 427.35 243.18 419.26 242.69 410.24 243.63 400.37 245.02 390.49 247.72 380.25 251.57 369.84 255.68 359.46 260.82 348.93 266.79 338.46 272.86 328.09 279.67 317.85 287.04 307.97 294.38 298.34 302.24 289.25 310.49 280.96 318.63 273.15 327.18 266.37 336.02 260.89 344.76 256.11 353.85 252.78 363.21 251.07 372.5 250.08 382.13 250.64 392.02 252.73 401.89 255.16 412.07 258.77 422.47 263.38" stroke-dasharray="11 9" transform="rotate(52.52, 400, 400)" opacity="0.61"></path><path d="M421.79 274.52C431.38 278.54 440.64 282.91 449.46 287.41 458.24 291.2 466.54 295.02 474.2 298.8 481.76 301.83 488.59 304.96 494.57 308.23 502.77 312.5 513.72 322.79 516.27 329.3 517.41 333.77 517.52 339.01 516.63 345.02 515.8 351 514.2 357.77 511.93 365.29 510.07 372.8 507.83 381.06 505.3 390.04 503.54 399.02 501.72 408.31 499.89 417.83 498.81 427.38 497.6 437.2 496.21 447.18 495.33 457.23 494.04 467.46 492.26 477.69 490.71 487.92 488.48 498.06 485.49 507.83 482.54 517.35 478.72 526.23 474.05 534.1 469.31 541.29 463.7 547.09 457.26 551.18 450.74 554.17 443.44 555.2 435.42 554.11 427.36 551.91 418.63 547.74 409.31 541.74 400 535.25 390.57 527.85 381.15 519.99 371.76 512.57 362.4 505.18 353.21 498.07 344.04 491.86 335.05 486 326.37 480.5 317.75 475.85 309.47 471.33 301.67 466.81 294.01 462.82 286.89 458.54 280.47 453.82 274.28 449.32 268.87 444.17 264.4 438.31 260.25 432.5 257.12 425.88 255.14 418.45 253.56 411.01 253.18 402.75 254.1 393.73 255.42 384.7 257.93 375.36 261.5 365.87 265.32 356.42 270.08 346.87 275.62 337.42 281.28 328.08 287.63 318.94 294.53 310.19 301.42 301.7 308.82 293.77 316.59 286.64 324.3 279.96 332.38 274.26 340.74 269.75 349.03 265.84 357.62 263.25 366.45 262.08 375.23 261.49 384.27 262.26 393.52 264.38 402.75 266.75 412.2 270.18 421.79 274.52" stroke-dasharray="1 9" transform="rotate(56.56, 400, 400)" opacity="0.27"></path><path d="M420.21 285.65C428.97 289.43 437.35 293.57 445.28 297.88 453.17 301.6 460.55 305.41 467.31 309.24 473.98 312.42 479.96 315.71 485.15 319.13 492.27 323.66 501.71 334.05 503.91 340.32 505.02 346.99 503.11 363.62 500.55 373.65 499.01 380.55 497.08 388.16 494.84 396.47 493.22 404.78 491.48 413.42 489.67 422.28 488.47 431.16 487.1 440.28 485.53 449.52 484.42 458.78 482.93 468.14 481.02 477.42 479.34 486.64 477.08 495.66 474.18 504.23 471.35 512.5 467.79 520.09 463.5 526.7 459.18 532.68 454.09 537.38 448.27 540.55 442.41 542.8 435.83 543.35 428.59 542.07 421.33 539.91 413.43 536.06 404.98 530.6 396.53 524.75 387.94 518.04 379.36 510.87 370.79 504 362.25 497.03 353.84 490.2 345.47 484.06 337.27 478.14 329.35 472.47 321.5 467.51 313.98 462.65 306.92 457.82 299.99 453.48 293.58 448.94 287.82 444.1 282.26 439.5 277.44 434.41 273.47 428.78 269.79 423.22 267.03 417.01 265.32 410.14 263.96 403.28 263.68 395.73 264.57 387.54 265.8 379.34 268.13 370.9 271.4 362.38 274.91 353.89 279.29 345.37 284.39 337 289.6 328.74 295.47 320.72 301.85 313.13 308.26 305.79 315.14 299.02 322.38 293.01 329.6 287.4 337.16 282.7 344.97 279.09 352.75 275.97 360.79 274.02 369.03 273.32 377.23 273.06 385.65 273.99 394.21 276.1 402.75 278.38 411.46 281.6 420.21 285.65" stroke-dasharray="6 8" transform="rotate(60.599999999999994, 400, 400)" opacity="0.43"></path><path d="M417.8 296.79C425.71 300.3 433.24 304.19 440.29 308.28 447.32 311.89 453.84 315.63 459.77 319.43 468.23 324.41 481.49 334.39 486.07 339.69 489.67 344.92 492.69 357.42 492.26 364.94 491.83 370.07 490.81 375.82 489.24 382.19 487.98 388.54 486.34 395.54 484.37 403.17 482.9 410.8 481.26 418.72 479.49 426.84 478.21 434.96 476.74 443.27 475.06 451.64 473.76 460 472.12 468.37 470.12 476.59 468.33 484.7 466.04 492.53 463.22 499.87 460.49 506.91 457.14 513.26 453.18 518.67 446.9 525.39 431.1 531.31 421.65 529.99 415.13 527.91 408.04 524.38 400.44 519.47 392.83 514.23 385.1 508.21 377.36 501.72 369.64 495.43 361.93 488.96 354.35 482.51 346.81 476.57 339.42 470.73 332.3 465.05 325.26 459.93 318.52 454.87 312.22 449.86 306.04 445.26 300.33 440.52 295.23 435.6 290.32 430.9 286.07 425.85 282.6 420.41 279.38 415.06 276.99 409.2 275.53 402.85 274.37 396.51 274.18 389.63 275.03 382.24 276.19 374.84 278.31 367.31 281.29 359.75 284.48 352.24 288.46 344.76 293.09 337.48 297.85 330.3 303.2 323.41 309.04 316.97 314.92 310.74 321.25 305.07 327.91 300.13 334.57 295.51 341.55 291.73 348.77 288.92 355.96 286.5 363.4 285.09 370.98 284.77 378.56 284.78 386.3 285.82 394.13 287.87 401.96 290.04 409.88 293.03 417.8 296.79" stroke-dasharray="8 3" transform="rotate(64.64, 400, 400)" opacity="0.63"></path><path d="M414.65 307.92C421.72 311.16 428.4 314.77 434.62 318.6 440.82 322.05 446.53 325.67 451.68 329.39 459.05 334.41 470.52 344.6 474.5 349.96 477.66 355.23 480.49 367.38 480.28 374.47 480.03 379.28 479.26 384.62 478 390.47 476.99 396.31 475.62 402.7 473.9 409.63 472.59 416.56 471.05 423.73 469.35 431.02 468.05 438.32 466.52 445.73 464.78 453.14 463.35 460.51 461.61 467.83 459.55 474.92 457.68 481.89 455.39 488.53 452.66 494.65 448.44 503.09 437.45 515.27 430.61 518.37 425.86 519.47 420.57 519.33 414.77 517.88 408.96 515.91 402.64 512.71 395.88 508.33 389.11 503.7 382.23 498.36 375.34 492.55 368.47 486.87 361.61 480.95 354.87 474.97 348.18 469.34 341.63 463.72 335.33 458.18 329.1 453.05 323.16 447.96 317.62 442.89 312.19 438.16 307.2 433.34 302.76 428.4 298.48 423.67 294.79 418.69 291.8 413.45 289.02 408.29 286.98 402.78 285.77 396.91 284.8 391.06 284.69 384.82 285.5 378.21 286.56 371.6 288.48 364.94 291.16 358.35 294.02 351.79 297.59 345.33 301.75 339.12 306.02 333 310.85 327.19 316.11 321.83 321.43 316.65 327.16 312.01 333.2 308.04 339.26 304.32 345.61 301.35 352.17 299.24 358.74 297.41 365.51 296.46 372.4 296.44 379.29 296.65 386.31 297.74 393.38 299.7 400.45 301.73 407.57 304.48 414.65 307.92" stroke-dasharray="10 6" transform="rotate(68.68, 400, 400)" opacity="1.00"></path><path d="M410.89 319.05C423.35 324.74 434.27 331.66 443.22 339.1 452.02 345.25 458.7 352.09 462.95 359.56 467.06 366.18 468.89 374.06 468.44 383.28 468.39 392.24 466.68 402.97 463.44 415.4 461.43 427.83 458.44 440.87 454.69 453.69 451.93 466.34 447.9 478.33 442.55 488.5 437.54 497.72 430.75 504.2 422.24 506.86 413.74 507.8 403.39 504.61 391.49 497.2 379.58 488.98 367.35 478.62 355.55 467.53 343.89 457.4 332.85 447.05 323.19 436.88 313.92 427.71 306.31 418.11 301.09 408.04 296.56 398.27 294.66 387.44 295.97 375.74 298.08 364.03 303.13 352.56 310.37 342.09 318.02 331.9 327.58 323.18 338.31 316.75 349.15 311.08 361.05 308.1 373.35 308.3 385.69 309.12 398.42 312.75 410.89 319.05" stroke-dasharray="0 0" transform="rotate(72.72, 400, 400)" opacity="0.82"></path><path d="M406.68 330.19C417.48 335.31 426.86 341.64 434.51 348.56 442.06 354.53 447.8 361.2 451.5 368.41 455.15 374.96 456.92 382.52 456.76 391.08 456.96 399.41 455.68 409.12 452.97 420.07 451.18 431.02 448.37 442.23 444.78 453 441.95 463.6 437.98 473.36 432.92 481.38 428.16 488.62 421.95 493.46 414.37 495.1 406.81 495.5 397.76 492.52 387.45 486.07 377.14 479 366.61 470 356.51 460.18 346.53 450.96 337.14 441.32 328.98 431.73 321.15 422.85 314.78 413.64 310.47 404.22 306.71 395.05 305.2 385.23 306.43 375 308.31 364.77 312.69 355.08 318.97 346.5 325.61 338.11 333.92 331.16 343.28 326.27 352.77 321.88 363.2 319.8 373.96 320.35 384.77 321.28 395.88 324.59 406.68 330.19" stroke-dasharray="10 11" transform="rotate(76.76, 400, 400)" opacity="0.50"></path><path d="M402.2 341.32C411.36 345.84 419.28 351.49 425.73 357.76 432.13 363.38 437.02 369.68 440.24 376.45 443.46 382.74 445.15 389.83 445.25 397.63 445.63 405.25 444.73 413.87 442.5 423.3 440.95 432.73 438.38 442.11 435.05 450.88 432.27 459.5 428.49 467.19 423.81 473.28 419.37 478.79 413.77 482.26 407.11 483.12 400.49 483.13 392.69 480.44 383.93 474.93 375.17 468.98 366.31 461.34 357.87 452.87 349.53 444.74 341.75 436.07 335.05 427.34 328.6 419.07 323.41 410.54 319.96 401.97 316.92 393.57 315.77 384.84 316.9 376.06 318.52 367.27 322.25 359.24 327.57 352.34 333.18 345.57 340.23 340.16 348.18 336.53 356.27 333.21 365.17 331.81 374.34 332.57 383.57 333.52 393.03 336.45 402.2 341.32" stroke-dasharray="6 1" transform="rotate(80.80000000000001, 400, 400)" opacity="0.59"></path><path d="M397.62 352.46C405.17 356.32 411.7 361.22 417.03 366.72 422.34 371.8 426.44 377.52 429.22 383.65 432.03 389.47 433.61 395.89 433.89 402.78 434.4 409.56 433.8 416.99 432.04 424.87 430.72 432.74 428.46 440.32 425.48 447.2 421.14 456.88 408.73 469.45 400.55 470.94 394.88 470.71 388.33 468.36 381.08 463.8 373.82 458.93 366.59 452.64 359.77 445.57 353.01 438.67 346.77 431.18 341.45 423.57 336.31 416.22 332.22 408.64 329.57 401.11 327.2 393.7 326.36 386.17 327.37 378.82 328.73 371.47 331.79 364.97 336.16 359.56 340.75 354.22 346.54 350.1 353.08 347.48 359.73 345.01 367.07 344.11 374.64 344.93 382.26 345.84 390.07 348.33 397.62 352.46" stroke-dasharray="1 0" transform="rotate(84.84, 400, 400)" opacity="0.82"></path><path d="M393.14 363.59C405.1 369.71 413.89 379.29 418.51 390.01 423.31 399.99 424.53 412.05 421.57 424.65 419.74 437.25 414.47 447.96 407.14 454.31 400.31 459.73 390.54 459.65 379 452.66 367.46 444.92 356.4 432.95 348.23 420.26 340.52 408.08 336.35 394.95 337.83 383.1 340.23 371.26 347.85 362.78 358.03 359 368.55 355.47 381.19 356.81 393.14 363.59" stroke-dasharray="9 1" transform="rotate(88.88, 400, 400)" opacity="0.40"></path><path d="M388.95 374.72C397.82 379.49 404.48 387.06 408.17 395.56 411.99 403.7 413.17 413.25 411.1 422.67 409.65 432.09 405.41 439.56 399.58 443.6 394.03 447.18 386.43 446.79 377.8 441.53 369.17 435.85 361.16 426.9 355.42 417.23 349.93 407.76 347.06 397.55 348.3 388.59 350.07 379.63 355.64 373.52 363.1 370.97 370.78 368.49 380.08 369.58 388.95 374.72" stroke-dasharray="8 10" transform="rotate(92.92, 400, 400)" opacity="0.24"></path><path d="M385.21 385.86C396.93 392.19 403.46 406.56 400.63 419.07 398.89 431.57 389.01 437.16 377.51 430.4 366.01 422.89 357.2 406.96 358.77 394.9 361.31 382.83 373.48 378.83 385.21 385.86" stroke-dasharray="4 8" transform="rotate(96.96, 400, 400)" opacity="0.75">
</path>
</g>
</svg>